<mxfile host="app.diagrams.net" modified="2021-10-29T10:55:51.873Z" agent="5.0 (Linux; Android 11; SM-G781U1) AppleWebKit/537.36 (KHTML, like Gecko) Chrome/95.0.4638.50 Mobile Safari/537.36" etag="iKQ_NipbPtNfiti5kqdq" version="15.6.2" type="github">
  <diagram id="LbIXBYtPMcrgPbF9wDt8" name="Page-1">
    <mxGraphModel dx="384" dy="1142" grid="0" gridSize="10" guides="1" tooltips="1" connect="1" arrows="1" fold="1" page="0" pageScale="1" pageWidth="850" pageHeight="1100" math="0" shadow="0">
      <root>
        <mxCell id="0" />
        <mxCell id="1" parent="0" />
        <mxCell id="4MiIrV9fYXFOiT7Y9uka-3" value="" style="edgeStyle=none;curved=1;rounded=0;sketch=1;hachureGap=4;orthogonalLoop=1;jettySize=auto;html=1;fontFamily=Architects Daughter;fontSource=https%3A%2F%2Ffonts.googleapis.com%2Fcss%3Ffamily%3DArchitects%2BDaughter;fontSize=16;endArrow=open;startSize=14;endSize=14;sourcePerimeterSpacing=8;targetPerimeterSpacing=8;" edge="1" parent="1" source="4MiIrV9fYXFOiT7Y9uka-1" target="4MiIrV9fYXFOiT7Y9uka-2">
          <mxGeometry relative="1" as="geometry" />
        </mxCell>
        <mxCell id="4MiIrV9fYXFOiT7Y9uka-1" value="Start" style="ellipse;whiteSpace=wrap;html=1;sketch=1;hachureGap=4;pointerEvents=0;fontFamily=Architects Daughter;fontSource=https%3A%2F%2Ffonts.googleapis.com%2Fcss%3Ffamily%3DArchitects%2BDaughter;fontSize=20;" vertex="1" parent="1">
          <mxGeometry x="98" y="-12" width="160" height="100" as="geometry" />
        </mxCell>
        <mxCell id="4MiIrV9fYXFOiT7Y9uka-2" value="" style="rounded=0;whiteSpace=wrap;html=1;sketch=1;hachureGap=4;pointerEvents=0;fontFamily=Architects Daughter;fontSource=https%3A%2F%2Ffonts.googleapis.com%2Fcss%3Ffamily%3DArchitects%2BDaughter;fontSize=20;" vertex="1" parent="1">
          <mxGeometry x="102" y="198" width="160" height="80" as="geometry" />
        </mxCell>
      </root>
    </mxGraphModel>
  </diagram>
</mxfile>
